<mxfile host="app.diagrams.net" modified="2024-03-02T03:30:38.692Z" agent="Mozilla/5.0 (Windows NT 10.0; Win64; x64) AppleWebKit/537.36 (KHTML, like Gecko) Chrome/122.0.0.0 Safari/537.36 Edg/122.0.0.0" etag="Scdk7x1mIU22Get6_PnB" version="23.1.7" type="github">
  <diagram name="Página-1" id="hASUcWHI3pG3GikZVGSN">
    <mxGraphModel dx="613" dy="335" grid="1" gridSize="10" guides="1" tooltips="1" connect="1" arrows="1" fold="1" page="1" pageScale="1" pageWidth="827" pageHeight="1169" math="0" shadow="0">
      <root>
        <mxCell id="0" />
        <mxCell id="1" parent="0" />
        <mxCell id="zK9RluluSJ4j275TgTgB-5" value="" style="edgeStyle=orthogonalEdgeStyle;rounded=0;orthogonalLoop=1;jettySize=auto;html=1;" edge="1" parent="1" source="zK9RluluSJ4j275TgTgB-1" target="zK9RluluSJ4j275TgTgB-2">
          <mxGeometry relative="1" as="geometry" />
        </mxCell>
        <mxCell id="zK9RluluSJ4j275TgTgB-1" value="Tabla de depreciación automóvil." style="rounded=0;whiteSpace=wrap;html=1;" vertex="1" parent="1">
          <mxGeometry x="354" y="30" width="120" height="60" as="geometry" />
        </mxCell>
        <mxCell id="zK9RluluSJ4j275TgTgB-6" value="" style="edgeStyle=orthogonalEdgeStyle;rounded=0;orthogonalLoop=1;jettySize=auto;html=1;" edge="1" parent="1" source="zK9RluluSJ4j275TgTgB-2" target="zK9RluluSJ4j275TgTgB-3">
          <mxGeometry relative="1" as="geometry" />
        </mxCell>
        <mxCell id="zK9RluluSJ4j275TgTgB-8" style="edgeStyle=orthogonalEdgeStyle;rounded=0;orthogonalLoop=1;jettySize=auto;html=1;" edge="1" parent="1" source="zK9RluluSJ4j275TgTgB-2" target="zK9RluluSJ4j275TgTgB-4">
          <mxGeometry relative="1" as="geometry" />
        </mxCell>
        <mxCell id="zK9RluluSJ4j275TgTgB-2" value="&lt;font style=&quot;font-size: 11px;&quot;&gt;Desde i = 1&lt;br&gt;Hasta i &amp;lt;= Vida útil&lt;br&gt;Incremento 1&lt;/font&gt;" style="rhombus;whiteSpace=wrap;html=1;" vertex="1" parent="1">
          <mxGeometry x="359" y="130" width="111" height="110" as="geometry" />
        </mxCell>
        <mxCell id="zK9RluluSJ4j275TgTgB-3" value="&lt;font style=&quot;font-size: 8px;&quot;&gt;Imprimir el año de la depreciación&lt;br&gt;Imprimir la depreciacion acumulada&lt;br&gt;Imprimir el valor real del auto&lt;br&gt;Valor real = Valor real- depreciacion acumulada&lt;br&gt;año de la depreciacion incremento 1&lt;/font&gt;" style="shape=parallelogram;perimeter=parallelogramPerimeter;whiteSpace=wrap;html=1;fixedSize=1;" vertex="1" parent="1">
          <mxGeometry x="260" y="280" width="214" height="80" as="geometry" />
        </mxCell>
        <mxCell id="zK9RluluSJ4j275TgTgB-4" value="Fin" style="rounded=0;whiteSpace=wrap;html=1;" vertex="1" parent="1">
          <mxGeometry x="550" y="280" width="120" height="60" as="geometry" />
        </mxCell>
        <mxCell id="zK9RluluSJ4j275TgTgB-16" value="" style="endArrow=classic;html=1;rounded=0;exitX=0;exitY=0.5;exitDx=0;exitDy=0;entryX=0;entryY=0.5;entryDx=0;entryDy=0;" edge="1" parent="1" source="zK9RluluSJ4j275TgTgB-3" target="zK9RluluSJ4j275TgTgB-2">
          <mxGeometry width="50" height="50" relative="1" as="geometry">
            <mxPoint x="420" y="220" as="sourcePoint" />
            <mxPoint x="470" y="170" as="targetPoint" />
            <Array as="points">
              <mxPoint x="250" y="310" />
              <mxPoint x="250" y="185" />
            </Array>
          </mxGeometry>
        </mxCell>
      </root>
    </mxGraphModel>
  </diagram>
</mxfile>
